<svg xmlns="http://www.w3.org/2000/svg" version="1.1" xmlns:xlink="http://www.w3.org/1999/xlink" xmlns:svgjs="http://svgjs.dev/svgjs" width="1000" height="999" viewBox="0 0 1000 999">
  <g transform="matrix(1,0,0,1,-0.215743440233382,-0.21552769679306039)">
    <svg viewBox="0 0 343 343" data-background-color="#ffffff" preserveAspectRatio="xMidYMid meet" height="999" width="1000" xmlns="http://www.w3.org/2000/svg" xmlns:xlink="http://www.w3.org/1999/xlink">
      <g id="tight-bounds" transform="matrix(1,0,0,1,0.0740000000000407,0.07400000000001228)">
        <svg viewBox="0 0 342.85155851775386 342.85155851775386" height="342.85155851775386" width="342.85155851775386">
          <g>
            <svg></svg>
          </g>
          <g>
            <svg viewBox="0 0 342.85155851775386 342.85155851775386" height="342.85155851775386" width="342.85155851775386">
              <g>
                <path d="M0 171.426c0-94.676 76.75-171.426 171.426-171.426 94.676 0 171.426 76.75 171.426 171.426 0 94.676-76.75 171.426-171.426 171.426-94.676 0-171.426-76.75-171.426-171.426zM171.426 338.76c92.416 0 167.334-74.918 167.334-167.334 0-92.416-74.918-167.334-167.334-167.334-92.416 0-167.334 74.918-167.334 167.334 0 92.416 74.918 167.334 167.334 167.334z" data-fill-palette-color="tertiary" fill="#7a26c1" stroke="transparent"></path>
                <ellipse rx="164.56874808852186" ry="164.56874808852186" cx="171.42577925887693" cy="171.42577925887693" fill="#7a26c1" stroke="transparent" stroke-width="0" fill-opacity="1" data-fill-palette-color="tertiary"></ellipse>
              </g>
              <g transform="matrix(1,0,0,1,64.84655864529837,80.68190748707255)">
                <svg viewBox="0 0 213.1584412271571 181.48774354360876" height="181.48774354360876" width="213.1584412271571">
                  <g>
                    <svg viewBox="0 0 213.1584412271571 181.48774354360876" height="181.48774354360876" width="213.1584412271571">
                      <g>
                        <svg viewBox="0 0 213.1584412271571 181.48774354360876" height="181.48774354360876" width="213.1584412271571">
                          <g transform="matrix(1,0,0,1,0,136.11666970810944)">
                            <svg viewBox="0 0 213.1584412271571 45.37107383549931" height="45.37107383549931" width="213.1584412271571">
                              <g id="textblocktransform">
                                <svg viewBox="0 0 213.1584412271571 45.37107383549931" height="45.37107383549931" width="213.1584412271571" id="textblock">
                                  <g>
                                    <svg viewBox="0 0 213.1584412271571 45.37107383549931" height="45.37107383549931" width="213.1584412271571">
                                      <g transform="matrix(1,0,0,1,0,0)">
                                        <svg width="213.1584412271571" viewBox="1.55 -14.05 12.45 2.6500000000000004" height="45.37107383549931" data-palette-color="#ffffff">
                                          <path d="M13.8-14.05L14-13.85 14-13.05 1.75-11.4 1.55-11.6 1.55-12.4 13.8-14.05Z" opacity="1" transform="matrix(1,0,0,1,0,0)" fill="#ffffff" class="undefined-text-0" data-fill-palette-color="quaternary" id="text-0"></path>
                                        </svg>
                                      </g>
                                    </svg>
                                  </g>
                                </svg>
                              </g>
                            </svg>
                          </g>
                          <g transform="matrix(1,0,0,1,32.47554627609695,0)">
                            <svg viewBox="0 0 148.2073486749632 125.40564808132011" height="125.40564808132011" width="148.2073486749632">
                              <g>
                                <svg xmlns="http://www.w3.org/2000/svg" xmlns:xlink="http://www.w3.org/1999/xlink" version="1.1" x="0" y="0" viewBox="0 13.422 100 84.615" enable-background="new 0 0 100 100" xml:space="preserve" height="125.40564808132011" width="148.2073486749632" class="icon-icon-0" data-fill-palette-color="quaternary" id="icon-0">
                                  <g fill="#ffffff" data-fill-palette-color="quaternary">
                                    <path d="M0 13.422v84.615h100V13.422H0zM92.308 90.346H7.692V28.807h84.615V90.346z" fill="#ffffff" data-fill-palette-color="quaternary"></path>
                                    <rect x="42.002" y="66.065" width="26.488" height="7.775" fill="#ffffff" data-fill-palette-color="quaternary"></rect>
                                    <polygon points="15.521,66.064 41.988,55.549 41.988,55.527 42.002,55.533 42.002,47.181 41.988,47.187 41.988,47.165    15.521,36.65 15.515,45.014 31.487,51.357 15.515,57.701  " fill="#ffffff" data-fill-palette-color="quaternary"></polygon>
                                  </g>
                                </svg>
                              </g>
                            </svg>
                          </g>
                          <g></g>
                        </svg>
                      </g>
                    </svg>
                  </g>
                </svg>
              </g>
            </svg>
          </g>
          <defs></defs>
        </svg>
        <rect width="342.85155851775386" height="342.85155851775386" fill="none" stroke="none" visibility="hidden"></rect>
      </g>
    </svg>
  </g>
</svg>